PathFileType	4	(X/Y/Z)	53_2_73_p1_0-233_filt_butterworth.trc
DataRate	CameraRate	NumFrames	NumMarkers	Units	OrigDataRate	OrigDataStartFrame	OrigNumFrames
59.0	59.0	6	27	m	59.0	0	233
Frame#	Time	RHip			RKnee			RAnkle			RBigToe			RSmallToe			RHeel			LHip			LKnee			LAnkle			LBigToe			LSmallToe			LHeel			Neck			Head			Nose			RShoulder			RElbow			RWrist			RThumb			RIndex			RPinky			LShoulder			LElbow			LWrist			LThumb			LIndex			LPinky			
		X1	Y1	Z1	X2	Y2	Z2	X3	Y3	Z3	X4	Y4	Z4	X5	Y5	Z5	X6	Y6	Z6	X7	Y7	Z7	X8	Y8	Z8	X9	Y9	Z9	X10	Y10	Z10	X11	Y11	Z11	X12	Y12	Z12	X13	Y13	Z13	X14	Y14	Z14	X15	Y15	Z15	X16	Y16	Z16	X17	Y17	Z17	X18	Y18	Z18	X19	Y19	Z19	X20	Y20	Z20	X21	Y21	Z21	X22	Y22	Z22	X23	Y23	Z23	X24	Y24	Z24	X25	Y25	Z25	X26	Y26	Z26	X27	Y27	Z27	
0	0.0	0.40147019967563563	0.6471879789022278	0.725911010572293	0.41370908966667885	0.7424253351427462	1.1466161842049605	0.3837633168109508	0.8844405813930458	1.5304942207242247	0.3207127531366244	0.7406238247855735	1.5745533810216341	0.3773990569314093	0.7431938175822227	1.5757269112023304	0.34499723146525735	0.9850833974643264	1.5993951227880996	0.19613480720581986	0.6489754659879543	0.7289540920563112	0.1617704307567061	0.7968759269890096	1.1625197589288876	0.16097898850785	0.8986698077776017	1.5518758956861498	0.1716336337787333	0.7647741016919315	1.580280616661054	0.10988758366608264	0.7778978066379781	1.5624670034370187	0.1735721543412027	0.9271923329998248	1.5821524332777126	0.31668043964682	0.5497761260590719	0.19657968517879496	0.3277911688460361	0.45121236028683726	-0.043511302401918736	0.3361282306023198	0.38626653902810687	0.08984081828625844	0.4633922051521676	0.5491703745420463	0.2558145656328702	0.4913442863277087	0.5744085593316806	0.5325377591833921	0.342061260491627	0.4476030364322943	0.6933197494729572	0.25882302075610714	0.4590882777763806	0.7468060702205079	0.2523596540661753	0.4647900507509286	0.7787365517206248	0.2593891615068213	0.4701500651906594	0.78479471978998	0.16754139661301393	0.6059249202421617	0.24224239518031207	0.12359809633257807	0.5789590814859398	0.5142041359889297	0.225139528179499	0.45244913569958467	0.6718725337376885	0.2742646845730226	0.41431206027861023	0.7295180514938042	0.28032679945857	0.40759016765425127	0.762447179265434	0.2677917371770191	0.4584158911692451	0.7704014130990297
1	0.0169491525423728	0.40121859970176316	0.6431046360932663	0.7268300050073826	0.41275167051742223	0.7463792647280263	1.1487229996798778	0.38281714097936365	0.8888227607999072	1.5320798231127077	0.3213075309831265	0.7401021971771921	1.5716007485085899	0.3729484260214282	0.7453483846240371	1.5767736157325216	0.34504199617698345	0.9851448542456902	1.599730202732287	0.19754849527266224	0.6447885859173985	0.732130316942458	0.1636428094536741	0.7936166826893678	1.1630775732612064	0.15794976989844078	0.8980245081675655	1.5516591097388162	0.17136528005829324	0.7611053116078987	1.5733687365854125	0.11043751602901757	0.7773622787910452	1.5602290876218416	0.17367371109971436	0.9279238742963378	1.5825060774586925	0.31615205041965044	0.541685987263837	0.19558635317510004	0.32778518440668625	0.45117925414090815	-0.04349412236579141	0.33583921575343395	0.3872440853097986	0.08867294503395966	0.46329791527690517	0.5490403740097932	0.25763253628935295	0.49143097938801505	0.5739039497244203	0.5325201210814444	0.3416663204144321	0.4474642675886225	0.6940919519812632	0.25642877704576	0.46296032417872035	0.7457337730697776	0.2491903253041799	0.4632304510101337	0.7751835793597002	0.2594525085452083	0.4699274427965344	0.7847346062210584	0.16757122347509382	0.6058558477978001	0.2422694846700147	0.123637811046626	0.5796969836463961	0.5156096979142233	0.22648322363701984	0.4577344331265081	0.67376932924086	0.27172235369256564	0.42271816985347627	0.7320552077028569	0.2779024744244164	0.4165617100299056	0.7630933781221532	0.26396847860453543	0.46601606519513283	0.7712261988493184
2	0.0338983050847457	0.40161605085053803	0.6398755468369264	0.7270843187647686	0.4123982823055906	0.748095031659078	1.1488593018499849	0.38280532310273446	0.8889228001818567	1.5321341287454693	0.3216715116594404	0.7398268327365248	1.569863760490613	0.37152013109280807	0.7465871180921486	1.5772314795897635	0.34556717478090265	0.9850908856991768	1.599383446047881	0.19894358350227423	0.6403366930384355	0.7334648774830177	0.16542154452983898	0.7925968535830861	1.1633630997824067	0.15624899277244622	0.8976559540873104	1.5515284052055578	0.1716820373408999	0.7607899256000872	1.570267408191596	0.11068560660389738	0.7773712575283058	1.559750830834182	0.17377573728817872	0.9283350616568365	1.582743911375027	0.3151636033246064	0.5378341464311085	0.19449387669593154	0.32781572052650443	0.4512911726171818	-0.04350380493876939	0.3351971688205704	0.3899357392710734	0.08762254397499096	0.46317180804331554	0.5489544421493374	0.2582394717044482	0.49143376115235515	0.5738945014526833	0.5324999701157098	0.3416020534206129	0.44756596808696386	0.694075220808988	0.25366092866622986	0.4664445520613605	0.7446851099080292	0.24666395839070085	0.4603156213844175	0.7722007333681612	0.25951905677606635	0.4698238949131355	0.7845665827626264	0.16758362300040194	0.6058287176825617	0.24229404021101936	0.12371670042025645	0.5803371979988073	0.5169213545126792	0.22775168208575142	0.46268545726882493	0.675584296513892	0.2697765246295391	0.42729521755171185	0.7336781537779692	0.27605888577683124	0.4215255638955214	0.7631355834634763	0.2612353528235469	0.4706773053793125	0.7716509019625805
3	0.0508474576271186	0.40175481585001316	0.6369382150943972	0.7261174684007934	0.4121133556540435	0.7498972138430627	1.1477276382615198	0.38343713922332956	0.8860805592656289	1.5311363041511976	0.32178569413624897	0.7397908485031142	1.569414402567651	0.37313723864315174	0.7478279405035414	1.5771716647251934	0.34656820927183496	0.9848983701207255	1.598028840279154	0.19990951847177027	0.6367860704014261	0.7323954862917817	0.16660675770739228	0.7942912725413562	1.163387730548604	0.15628804232866317	0.8976744891487342	1.5515197448803972	0.1723331372873414	0.7628314530044162	1.5707511120293272	0.11067729257379312	0.7778947914796446	1.5609087794288568	0.17388452108150354	0.9284842976204084	1.5827634300385998	0.3138752718147558	0.5369938649827641	0.1937091877856899	0.32788016381433904	0.45153002578305923	-0.04353975496654521	0.33423444595237695	0.3937417323238285	0.08665617763414976	0.46305812565101084	0.5489122364244253	0.2578723484816834	0.4911564228533612	0.5754825656633782	0.5325479964274497	0.34210087219805857	0.4487968072615364	0.6936628219099743	0.2511079209238923	0.468392939013013	0.7439370328896874	0.2450263288020075	0.45649431132188834	0.770197943014276	0.25959148662760606	0.4698313270954451	0.7843990354145147	0.16757799914860963	0.6058458008103218	0.2423077067273146	0.12380909433407816	0.58072861214766	0.5178105195029618	0.22861910751588227	0.4660510440655546	0.6768163022329936	0.2681968367217612	0.42772286371377366	0.7344498911764058	0.2744365269608311	0.4227053308706365	0.7633237699511637	0.26038192944267574	0.47313362849921975	0.7719037570565138
4	0.0677966101694915	0.40086758836386926	0.6344188620653365	0.7241793970391323	0.4114030056492125	0.7536326301881882	1.1471516385399043	0.38388178357417924	0.8841043496303762	1.5304508257083882	0.3217733995556265	0.7398365144938605	1.569560660959968	0.3753579382061343	0.7509404509318793	1.5773330291802827	0.34728542872975987	0.9846786513850793	1.5961335342002054	0.20028264081848346	0.6351277026805853	0.7297121525480958	0.16696037068986982	0.7968464503329676	1.1635881233843806	0.15766359023793777	0.8980281360371163	1.5516210934786185	0.17272910478197406	0.7647025645011335	1.571957436995741	0.11059226592927776	0.7785366359276595	1.5623221526860984	0.17399422392782554	0.9286886947702602	1.582361615700093	0.31288454619054107	0.5366462321891673	0.19339313099164845	0.32786011333513	0.45153079944747354	-0.043557870242825036	0.3331085365827193	0.39697485093828155	0.08590480168709172	0.4630205020925764	0.5488541808314888	0.2574197164397778	0.49045055290055406	0.5795613855588675	0.5327413219255557	0.3432102754320446	0.4519519212682	0.6936935139679091	0.2495815669992316	0.46823591714136814	0.7438658596793786	0.24424382789393734	0.4535203188753992	0.7694220459648762	0.25964337650949515	0.46979732126284024	0.7847500930578624	0.16756370322648279	0.6058757410772904	0.24230834460625963	0.12377877426501012	0.5807910896587476	0.5181444529746907	0.2289382819674017	0.467278451354927	0.6772065967715116	0.26663150025858057	0.42656027185703344	0.7347817439165139	0.27254789139986296	0.42359410488434796	0.7650187503044317	0.261409833015275	0.4760376076928752	0.7726567002745284
5	0.0847457627118644	0.3995027694115696	0.6331272155338193	0.7221276213579507	0.4106271096378786	0.7573722528632696	1.1479464156610006	0.38363572523612266	0.8852813311837024	1.530911036312939	0.3217429336419977	0.7398813415918443	1.5697570376672758	0.3761962827246343	0.7557793173361141	1.5782249636074916	0.34708577380218947	0.9845890733813321	1.5946584551234484	0.2003643357820648	0.6349244800262658	0.7267230483391035	0.16680327663365027	0.7984451232557281	1.1642905432740118	0.15948482587844875	0.8985095164952871	1.5517646325355818	0.1725445670162964	0.7651934034598202	1.5719284589687486	0.11044568724284473	0.77893644936405	1.563082874414218	0.1740741088849889	0.9290893564807694	1.5813393157051094	0.31247483938920734	0.5363685032436278	0.19304490116387832	0.3274759675775062	0.45046205113388615	-0.043450000206396194	0.33159097842913143	0.3996161091280718	0.08546311834668893	0.4630274604590165	0.5486930573166994	0.2568002509257614	0.48954400252404073	0.5850447464888465	0.5330084619702721	0.3445235527876142	0.4562155706785087	0.694479135427749	0.24902482453178232	0.46671959063144625	0.7447630147130253	0.24407395159565898	0.45230088622811343	0.770094272770078	0.2596014651735026	0.4695404335574942	0.7864107859002424	0.16754651540642157	0.6058866316281344	0.24230384674652586	0.1233103691188862	0.5804836715973459	0.5181428756265566	0.22891946688565434	0.4671632810599643	0.6771010447202536	0.2651294451946471	0.42685512462765346	0.7350040026561394	0.270478097832892	0.42679821631972564	0.7684337093624306	0.26326373484260923	0.4799968167714626	0.7742461389135389
